<svg xmlns="http://www.w3.org/2000/svg" width="679" height="271" viewBox="0 0 679 271">
  <g fill="none" fill-rule="evenodd" transform="translate(0 -1)">
    <polygon fill="#FFFFFF" points="407.105 128.549 416.695 128.549 416.695 118.5 407.105 118.5"/>
    <polygon fill="#FFFFFF" points="575.932 128.549 585.522 128.549 585.522 118.5 575.932 118.5"/>
    <g transform="translate(0 51.402)">
      <path fill="#FFFFFF" d="M72.9856,46.6982 C71.5696,55.2882 67.6776,62.0252 61.3266,66.9032 C54.9646,71.7812 46.9206,74.2192 37.1896,74.2192 C25.8496,74.2192 16.8246,70.9132 10.0926,64.2942 C3.3616,57.6782 -0.0004,48.7672 -0.0004,37.5572 C-0.0004,26.3432 3.4976,17.4152 10.4876,10.7662 C17.4726,4.1182 26.8636,0.7952 38.6436,0.7952 C47.9266,0.7952 55.5516,2.8162 61.5226,6.8602 C67.4876,10.9032 71.0686,16.4742 72.2536,23.5812 L61.5226,23.5812 C60.4776,18.9712 57.9516,15.4062 53.9356,12.8932 C49.9376,10.3862 44.7756,9.1322 38.4776,9.1322 C30.2386,9.1322 23.6776,11.6932 18.7956,16.8352 C13.9076,21.9622 11.4696,28.8692 11.4696,37.5572 C11.4696,46.7762 13.7316,53.8002 18.2626,58.6342 C22.7906,63.4642 29.3666,65.8822 37.9806,65.8822 C44.3516,65.8822 49.6436,64.2202 53.8576,60.8832 C58.0736,57.5512 60.8636,52.8292 62.2486,46.6982 L72.9856,46.6982 Z" transform="translate(0 66)"/>
      <path fill="#FFFFFF" d="M116.7364 118.0449L116.7364 118.0449 116.7364 112.5089C114.8974 113.2689 112.8584 113.7909 110.6084 114.0789L101.5024 115.2299C96.7224 115.8009 93.2234 116.7619 91.0234 118.1179 88.8104 119.4739 87.7014 121.3129 87.7014 123.6309 87.7014 126.4939 88.6094 128.7029 90.4144 130.2499 92.2094 131.7869 94.7694 132.5669 98.0774 132.5669 103.3064 132.5669 107.7264 131.3379 111.3264 128.8839 113.7894 127.1659 115.4274 125.2189 116.2384 123.0589 116.3854 122.6499 116.4974 121.9949 116.5704 121.1029 116.6864 120.1759 116.7364 119.1559 116.7364 118.0449M96.1554 139.6789C90.3754 139.6789 85.7954 138.3419 82.4084 135.6649 79.0284 132.9959 77.3314 129.3859 77.3314 124.8239 77.3314 120.2439 78.9214 116.5959 82.1064 113.8889 85.2874 111.1859 89.9314 109.4979 96.0384 108.8259L109.5664 107.3479C110.6674 107.2539 111.7114 107.0929 112.7064 106.8689 113.9954 106.5809 114.9894 106.0109 115.6874 105.1469 116.3854 104.2889 116.7364 103.2099 116.7364 101.9029L116.7364 101.4739C116.7364 98.7369 115.5414 96.5959 113.1454 95.0539 110.7594 93.5029 107.4234 92.7319 103.1564 92.7319 99.0784 92.7319 95.8824 93.5519 93.5844 95.1919 91.2874 96.8399 89.8974 99.2799 89.4184 102.5229L80.2574 102.5229C80.7304 96.9179 83.0184 92.7079 87.0964 89.8889 91.1804 87.0789 97.0334 85.6699 104.6524 85.6699 111.8284 85.6699 117.2914 87.0099 121.0434 89.6979 124.7944 92.3949 126.6714 96.3169 126.6714 101.4739L126.6714 129.5519C126.6714 130.4159 126.9744 131.1079 127.5794 131.6349 128.1894 132.1559 129.0034 132.4149 130.0334 132.4149 130.3304 132.4149 130.7654 132.3849 131.3354 132.3269 131.9104 132.2639 132.5254 132.1669 133.1854 132.0399L133.1854 138.2489C132.2234 138.5659 131.2144 138.8209 130.1504 139.0109 129.0814 139.1999 128.1794 139.2979 127.4484 139.2979 123.6874 139.2979 120.9654 138.4059 119.2724 136.6199 118.1694 135.4439 117.3794 133.7759 116.9014 131.6049 116.1654 132.4009 115.3214 133.1669 114.3644 133.9029 109.3984 137.7519 103.3254 139.6789 96.1554 139.6789M138.6777 86.7612L143.4917 86.7612 148.3657 86.7612 148.3657 94.4162 150.4667 92.1032C155.0327 87.5232 160.4967 85.2252 166.8437 85.2252 172.2857 85.2252 176.6137 86.5872 179.8287 89.3122 181.2617 90.5322 182.3787 91.9322 183.1747 93.4982L184.8227 91.7182C189.1977 87.3852 194.4327 85.2252 200.5197 85.2252 206.8677 85.2252 211.7697 86.6892 215.2287 89.6252 218.6857 92.5662 220.4177 96.7222 220.4177 102.1172L220.4177 138.2482 215.3157 138.2482 210.2087 138.2482 210.2087 105.0492C210.2087 101.1372 209.2667 98.1662 207.3747 96.1472 205.4867 94.1222 202.7297 93.1072 199.1007 93.1072 194.6817 93.1072 191.1647 94.5772 188.5597 97.4942 185.9497 100.4152 184.6467 104.3622 184.6467 109.3272L184.6467 138.2482 179.5457 138.2482 174.4477 138.2482 174.4477 102.9802C174.4477 99.7762 173.5847 97.3232 171.8667 95.6402 170.1407 93.9522 167.6427 93.1072 164.3497 93.1072 159.8227 93.1072 156.1017 94.7472 153.2137 98.0202 150.3267 101.2932 148.8767 105.5122 148.8767 110.6792L148.8767 138.2482 143.7797 138.2482 138.6777 138.2482 138.6777 86.7612zM255.3641 132.3768L255.3641 132.3768C260.4621 132.3768 264.3401 130.6538 266.9781 127.2058 269.6181 123.7568 270.9341 118.7268 270.9341 112.1278 270.9341 105.6258 269.6671 100.8058 267.1351 97.6838 264.6031 94.5568 260.7011 93.0008 255.4181 93.0008 250.0221 93.0008 246.0911 94.7568 243.6131 98.2878 241.1341 101.8158 239.8971 107.4008 239.8971 115.0388 239.8971 120.5708 241.2371 124.8498 243.9111 127.8598 246.5941 130.8748 250.4081 132.3768 255.3641 132.3768L255.3641 132.3768zM230.1301 86.5868L234.7441 86.5868 239.4081 86.5868 239.4081 93.9608 239.8971 93.3328C244.0901 87.7968 249.6081 85.0298 256.4471 85.0298 264.0421 85.0298 270.0611 87.3718 274.4951 92.0498 278.9191 96.7278 281.1341 103.0448 281.1341 111.0108 281.1341 120.0438 278.9051 127.1218 274.4371 132.2538 269.9691 137.3858 263.7731 139.9518 255.8511 139.9518 249.3051 139.9518 244.0901 137.6978 240.2221 133.2008L239.8971 132.8138 239.8971 159.0788 235.0131 159.0788 230.1301 159.0788 230.1301 86.5868zM325.6849 126.8292L325.6849 126.8292C328.7729 123.2492 330.3189 118.4342 330.3189 112.3812 330.3189 106.3322 328.7729 101.4982 325.6849 97.9032 322.5929 94.3182 318.4369 92.5222 313.2219 92.5222 307.9929 92.5222 303.8419 94.3182 300.7729 97.9032 297.7049 101.4982 296.1679 106.3322 296.1679 112.3812 296.1679 118.4342 297.7049 123.2492 300.7729 126.8292 303.8419 130.4002 307.9929 132.1852 313.2219 132.1852 318.4369 132.1852 322.5929 130.4002 325.6849 126.8292M293.3829 132.1422C288.3299 127.1122 285.7979 120.5322 285.7979 112.3812 285.7979 104.1952 288.3299 97.5962 293.3829 92.5722 298.4429 87.5432 305.0469 85.0292 313.2219 85.0292 321.4559 85.0292 328.0909 87.5432 333.1339 92.5722 338.1679 97.5962 340.6909 104.1952 340.6909 112.3812 340.6909 120.5322 338.1679 127.1122 333.1339 132.1422 328.0909 137.1652 321.4559 139.6782 313.2219 139.6782 305.0469 139.6782 298.4429 137.1652 293.3829 132.1422"/>
      <polygon fill="#FFFFFF" points="348.739 138.254 348.739 67.962 353.9 67.962 359.109 67.962 359.109 129.839 397.934 129.839 397.934 134.044 397.934 138.254"/>
      <polygon fill="#FFFFFF" points="407.207 86.909 411.895 86.909 416.587 86.909 416.587 138.255 411.895 138.255 407.207 138.255"/>
      <polygon fill="#FFFFFF" points="576.035 86.909 580.722 86.909 585.414 86.909 585.414 138.255 580.722 138.255 576.035 138.255"/>
      <path fill="#FFFFFF" d="M426.8698 86.9029L431.6218 86.9029 436.4308 86.9029 436.4308 94.5329 438.4988 92.2249C443.0058 87.6549 448.3968 85.3719 454.6508 85.3719 460.0208 85.3719 464.2888 86.7229 467.4548 89.4449 468.8748 90.6649 469.9728 92.0539 470.7528 93.6199L472.3718 91.8449C476.6938 87.5279 481.8548 85.3719 487.8558 85.3719 494.1238 85.3719 498.9518 86.8309 502.3618 89.7579 505.7768 92.6839 507.4748 96.8399 507.4748 102.2059L507.4748 138.2539 502.4498 138.2539 497.4158 138.2539 497.4158 105.1369C497.4158 101.2409 496.4788 98.2739 494.6148 96.2589 492.7528 94.2439 490.0398 93.2349 486.4588 93.2349 482.0978 93.2349 478.6308 94.6989 476.0648 97.6059 473.4898 100.5129 472.2068 104.4549 472.2068 109.4109L472.2068 138.2539 467.1768 138.2539 462.1418 138.2539 462.1418 103.0739C462.1418 99.8739 461.2938 97.4349 459.6008 95.7529 457.9088 94.0789 455.4358 93.2349 452.1968 93.2349 447.7238 93.2349 444.0598 94.8689 441.2118 98.1329 438.3568 101.3959 436.9388 105.5999 436.9388 110.7569L436.9388 138.2539 431.9038 138.2539 426.8698 138.2539 426.8698 86.9029zM542.6546 132.4829L542.6546 132.4829C547.7276 132.4829 551.5806 130.7709 554.2056 127.3319 556.8396 123.9039 558.1566 118.8929 558.1566 112.3169 558.1566 105.8349 556.8936 101.0399 554.3756 97.9269 551.8536 94.8209 547.9616 93.2549 542.7086 93.2549 537.3366 93.2549 533.4256 95.0209 530.9566 98.5329 528.4936 102.0449 527.2596 107.6109 527.2596 115.2199 527.2596 120.7279 528.5916 124.9859 531.2546 127.9859 533.9226 130.9859 537.7226 132.4829 542.6546 132.4829L542.6546 132.4829zM517.5376 86.8829L522.1276 86.8829 526.7716 86.8829 526.7716 94.2299 527.2596 93.6059C531.4346 88.0879 536.9276 85.3329 543.7316 85.3329 551.2886 85.3329 557.2786 87.6649 561.6936 92.3229 566.1026 96.9759 568.3126 103.2739 568.3126 111.2059 568.3126 120.2009 566.0886 127.2539 561.6396 132.3609 557.1906 137.4689 551.0256 140.0239 543.1416 140.0239 536.6256 140.0239 531.4346 137.7859 527.5806 133.3089L527.2596 132.9179 527.2596 159.0829 522.4006 159.0829 517.5376 159.0829 517.5376 86.8829zM634.3418 126.8292L634.3418 126.8292C637.5698 123.2592 639.1758 118.4402 639.1758 112.3862 639.1758 106.3322 637.5698 101.5082 634.3418 97.9172 631.1118 94.3222 626.7708 92.5322 621.3168 92.5322 615.8638 92.5322 611.5408 94.3222 608.3268 97.9172 605.1168 101.5082 603.5168 106.3322 603.5168 112.3862 603.5168 118.4402 605.1168 123.2592 608.3268 126.8292 611.5408 130.4062 615.8638 132.1902 621.3168 132.1902 626.7708 132.1902 631.1118 130.4062 634.3418 126.8292M600.6058 132.1422C595.3218 127.1222 592.6838 120.5322 592.6838 112.3862 592.6838 104.2052 595.3218 97.6002 600.6058 92.5822 605.8828 87.5512 612.7998 85.0452 621.3168 85.0452 629.9228 85.0452 636.8538 87.5512 642.1168 92.5822 647.3798 97.6002 650.0148 104.2052 650.0148 112.3862 650.0148 120.5322 647.3798 127.1222 642.1168 132.1422 636.8538 137.1652 629.9228 139.6782 621.3168 139.6782 612.7998 139.6782 605.8828 137.1652 600.6058 132.1422M655.6189 75.4155C655.5109 74.1865 655.0529 73.2305 654.2539 72.5665 653.4539 71.8945 652.3749 71.5615 651.0139 71.5615 649.6189 71.5615 648.5599 71.8505 647.8239 72.4245 647.1119 73.0015 646.7469 73.8395 646.7469 74.9465 646.7469 75.6985 646.9849 76.2655 647.4729 76.6355 647.9559 77.0055 648.9219 77.3725 650.3799 77.7375L653.5759 78.5475C655.2879 78.9815 656.5119 79.6205 657.2489 80.4785 657.9749 81.3185 658.3399 82.5035 658.3399 84.0455 658.3399 85.8195 657.7119 87.2255 656.4529 88.2595 655.1959 89.2945 653.4819 89.8115 651.3319 89.8115 648.9359 89.8115 647.0619 89.2155 645.7119 88.0205 644.3949 86.8445 643.7359 85.2305 643.7359 83.1865L643.7359 83.0405 646.0289 83.0405C646.0629 84.4545 646.5459 85.5475 647.4769 86.3185 648.3949 87.0885 649.6779 87.4735 651.3359 87.4735 652.8539 87.4735 654.0149 87.1965 654.8049 86.6395 655.5949 86.0785 655.9859 85.2585 655.9859 84.1815 655.9859 83.2395 655.7259 82.5475 655.2099 82.0885 654.6929 81.6495 653.6479 81.2305 652.0829 80.8295L648.8879 80.0205C647.2739 79.6165 646.1169 79.0545 645.4299 78.3235 644.7419 77.5915 644.3949 76.5865 644.3949 75.3035 644.3949 73.4345 644.9899 71.9565 646.1859 70.8585 647.3749 69.7675 648.9899 69.2205 651.0139 69.2205 653.0769 69.2205 654.7209 69.7715 655.9419 70.8685 657.1649 71.9725 657.8239 73.4835 657.9029 75.4155L655.6189 75.4155z"/>
      <polygon fill="#FFFFFF" points="2.824 20.279 1.625 20.279 .414 20.279 .414 .758 2.199 .758 3.985 .758 9.228 17.372 14.429 .758 16.209 .758 17.994 .758 17.994 20.279 16.795 20.279 15.584 20.279 15.584 3.758 15.574 3.758 10.409 20.279 9.208 20.279 8.015 20.279 2.824 3.811" transform="translate(661 69)"/>
      <path fill="#FFFFFF" d="M21.1612 174.0631L21.1612 174.0631C21.6782 174.0631 22.1232 174.0391 22.4882 173.9811 22.8532 173.9271 23.1862 173.8201 23.4932 173.6441 23.7952 173.4631 24.0242 173.2051 24.1902 172.8441 24.3572 172.4831 24.4392 172.0101 24.4392 171.4151 24.4392 170.8291 24.3572 170.3521 24.1902 170.0091 24.0242 169.6541 23.7952 169.3951 23.4932 169.2151 23.1862 169.0391 22.8532 168.9321 22.4882 168.8741 22.1232 168.8241 21.6782 168.7961 21.1612 168.7961L14.8252 168.7961 14.8252 174.0631 21.1612 174.0631zM11.7612 165.6061L20.4932 165.6061C21.4392 165.6061 22.2722 165.6401 22.9812 165.7221 23.6972 165.8001 24.4052 166.0251 25.1072 166.3901 25.8102 166.7571 26.3862 167.3461 26.8292 168.1561 27.2742 168.9711 27.4972 170.0591 27.4972 171.4441 27.4972 172.8001 27.2742 173.8881 26.8292 174.7071 26.3862 175.5171 25.8102 176.0981 25.1072 176.4591 24.4052 176.8141 23.6972 177.0301 22.9812 177.1231 22.2722 177.2091 21.4392 177.2531 20.4932 177.2531L14.8252 177.2531 14.8252 184.6391 11.7612 184.6391 11.7612 165.6061zM38.6833 174.0631L38.6833 174.0631C40.0343 174.0631 41.0053 173.8731 41.5863 173.5071 42.1663 173.1411 42.4543 172.4291 42.4543 171.3611 42.4543 170.3121 42.1663 169.6101 41.5863 169.2391 41.0053 168.8741 40.0343 168.6931 38.6833 168.6931L32.7763 168.6931 32.7763 174.0631 38.6833 174.0631zM29.7213 165.6061L39.1363 165.6061C40.1413 165.6061 41.0293 165.6881 41.7893 165.8491 42.5513 166.0191 43.2043 166.3121 43.7603 166.7311 44.3173 167.1521 44.7463 167.7271 45.0533 168.4691 45.3653 169.2111 45.5163 170.1521 45.5163 171.2881 45.5163 172.9611 45.0913 174.2881 44.2433 175.2781 43.3953 176.2631 42.3603 176.8001 41.1413 176.8881L45.9513 184.6391 42.1763 184.6391 37.6303 177.1511 32.7763 177.1511 32.7763 184.6391 29.7213 184.6391 29.7213 165.6061zM59.4833 181.5761L59.4833 181.5761C60.2093 181.3511 60.8823 180.9801 61.4823 180.4591 62.0933 179.9521 62.5703 179.2401 62.9313 178.3461 63.2923 177.4441 63.4673 176.3471 63.4673 175.0581 63.4673 172.8581 62.8973 171.1861 61.7463 170.0451 60.5993 168.8981 59.0823 168.3311 57.1993 168.3311 55.3163 168.3311 53.7993 168.8981 52.6523 170.0451 51.5013 171.1861 50.9213 172.8581 50.9213 175.0581 50.9213 176.3471 51.1063 177.4391 51.4683 178.3261 51.8243 179.2201 52.3073 179.9271 52.9123 180.4491 53.5123 180.9761 54.1803 181.3511 54.9123 181.5761 55.6433 181.8001 56.4053 181.9121 57.1993 181.9121 57.9913 181.9121 58.7513 181.8001 59.4833 181.5761M48.3713 171.4191C48.7123 170.2141 49.2493 169.1371 49.9893 168.1801 50.7273 167.2301 51.7033 166.4881 52.9123 165.9471 54.1173 165.4001 55.5453 165.1371 57.1993 165.1371 58.8493 165.1371 60.2773 165.4001 61.4823 165.9471 62.6973 166.4881 63.6683 167.2301 64.4093 168.1801 65.1453 169.1371 65.6883 170.2141 66.0253 171.4191 66.3603 172.6201 66.5313 173.9031 66.5313 175.2681 66.5313 176.3651 66.3803 177.4781 66.0833 178.6001 65.7753 179.7311 65.2793 180.7861 64.5703 181.7701 63.8633 182.7511 62.9033 183.5611 61.6733 184.1801 60.4393 184.8041 58.9513 185.1071 57.1993 185.1071 55.4433 185.1071 53.9553 184.8041 52.7263 184.1801 51.4973 183.5611 50.5263 182.7511 49.8293 181.7701 49.1213 180.7861 48.6183 179.7311 48.3173 178.6001 48.0203 177.4781 47.8683 176.3651 47.8683 175.2681 47.8683 173.9031 48.0343 172.6201 48.3713 171.4191M85.3892 174.873L85.3892 184.848 83.5312 184.848 82.9312 182.889C82.5122 183.214 82.1412 183.492 81.7992 183.721 81.4622 183.951 81.0672 184.171 80.6142 184.389 80.1662 184.61 79.6392 184.78 79.0382 184.908 78.4442 185.044 77.7852 185.107 77.0732 185.107 75.9902 185.107 74.9412 184.932 73.9112 184.585 72.8882 184.234 71.9362 183.673 71.0682 182.897 70.1992 182.117 69.5062 181.083 68.9902 179.79 68.4672 178.512 68.2142 176.956 68.2142 175.156 68.2142 173.839 68.3792 172.581 68.7162 171.39 69.0532 170.205 69.5802 169.147 70.2922 168.195 71.0002 167.254 71.9162 166.508 73.0432 165.957 74.1612 165.405 75.4772 165.131 76.9802 165.131 77.9352 165.131 78.8532 165.243 79.7552 165.473 80.6522 165.702 81.4822 166.069 82.2532 166.572 83.0242 167.083 83.6732 167.747 84.2042 168.571 84.7362 169.405 85.0972 170.4 85.2832 171.546L82.1612 171.546C82.0092 171.146 81.8532 170.791 81.6822 170.474 81.5062 170.161 81.2492 169.839 80.8972 169.507 80.5412 169.175 80.0722 168.898 79.4822 168.664 78.8972 168.439 78.1852 168.327 77.3462 168.327 76.1842 168.327 75.2042 168.537 74.4102 168.956 73.6142 169.376 72.9852 169.923 72.5212 170.59 72.0582 171.264 71.7362 171.98 71.5452 172.736 71.3702 173.498 71.2722 174.254 71.2722 175.005 71.2722 177.185 71.8142 178.869 72.8922 180.038 73.9612 181.225 75.3662 181.81 77.0922 181.81 78.6042 181.81 79.7892 181.482 80.6582 180.84 81.5322 180.196 82.1512 179.2 82.5222 177.859L77.0242 177.859 77.0242 174.873 85.3892 174.873zM97.3508 174.0631L97.3508 174.0631C98.7018 174.0631 99.6728 173.8731 100.2478 173.5071 100.8278 173.1411 101.1258 172.4291 101.1258 171.3611 101.1258 170.3121 100.8278 169.6101 100.2478 169.2391 99.6728 168.8741 98.7018 168.6931 97.3508 168.6931L91.4478 168.6931 91.4478 174.0631 97.3508 174.0631zM88.3848 165.6061L97.8038 165.6061C98.8088 165.6061 99.6968 165.6881 100.4528 165.8491 101.2138 166.0191 101.8718 166.3121 102.4288 166.7311 102.9788 167.1521 103.4098 167.7271 103.7268 168.4691 104.0288 169.2111 104.1838 170.1521 104.1838 171.2881 104.1838 172.9611 103.7648 174.2881 102.9168 175.2781 102.0628 176.2631 101.0288 176.8001 99.8048 176.8881L104.6188 184.6391 100.8388 184.6391 96.2978 177.1511 91.4478 177.1511 91.4478 184.6391 88.3848 184.6391 88.3848 165.6061zM118.5996 177.0676L118.5996 177.0676 115.3266 168.5866 112.0486 177.0676 118.5996 177.0676zM113.5806 165.6056L117.0776 165.6056 124.6826 184.6386 121.4486 184.6386 119.8086 180.2636 110.7756 180.2636 109.1256 184.6386 105.8676 184.6386 113.5806 165.6056z"/>
      <polygon fill="#FFFFFF" points="129.381 170.214 129.336 170.214 129.336 184.635 126.624 184.635 126.624 165.606 130.736 165.606 135.628 179.713 140.609 165.606 144.633 165.606 144.633 184.635 141.922 184.635 141.922 170.214 141.878 170.214 136.858 184.635 134.424 184.635"/>
      <path fill="#FFFFFF" d="M159.3161 177.0676L159.3161 177.0676 156.0421 168.5866 152.7601 177.0676 159.3161 177.0676zM154.2921 165.6056L157.7841 165.6056 165.3931 184.6386 162.1651 184.6386 160.5211 180.2636 151.4961 180.2636 149.8341 184.6386 146.5741 184.6386 154.2921 165.6056zM183.9248 181.4443L183.9248 181.4443C186.6038 181.4443 188.5308 180.9413 189.6918 179.9423 190.8518 178.9323 191.4318 177.3073 191.4318 175.0583 191.4318 172.7513 190.8568 171.1263 189.7008 170.2003 188.5508 169.2693 186.6178 168.7953 183.9248 168.7953L180.7068 168.7953 180.7068 181.4443 183.9248 181.4443zM177.5348 165.6053L185.3548 165.6053C186.7018 165.6053 187.9268 165.7813 189.0278 166.1273 190.1398 166.4733 191.1148 167.0243 191.9548 167.7613 192.7888 168.5023 193.4368 169.4783 193.9058 170.6933 194.3688 171.9123 194.6078 173.3463 194.6078 175.0003 194.6078 176.5903 194.3848 177.9903 193.9458 179.2053 193.5068 180.4153 192.8818 181.4303 192.0718 182.2293 191.2578 183.0283 190.3008 183.6353 189.1898 184.0343 188.0768 184.4333 186.8428 184.6383 185.4868 184.6383L177.5348 184.6383 177.5348 165.6053z"/>
      <polygon fill="#FFFFFF" points="197.403 165.606 211.979 165.606 211.979 168.796 200.575 168.796 200.575 173.225 210.393 173.225 210.393 176.41 200.575 176.41 200.575 181.445 212.247 181.445 212.247 184.639 197.403 184.639"/>
      <polygon fill="#FFFFFF" points="229.199 170.214 229.154 170.214 229.154 184.635 226.51 184.635 226.51 165.606 230.52 165.606 235.286 179.713 240.134 165.606 244.061 165.606 244.061 184.635 241.413 184.635 241.413 170.214 241.369 170.214 236.481 184.635 234.111 184.635"/>
      <path fill="#FFFFFF" d="M258.349,177.0676 L258.349,177.0676 L255.159,168.5866 L251.969,177.0676 L258.349,177.0676 Z M253.457,165.6056 L256.861,165.6056 L264.266,184.6386 L261.12,184.6386 L259.524,180.2636 L250.73,180.2636 L249.12,184.6386 L245.944,184.6386 L253.457,165.6056 Z"/>
      <polygon fill="#FFFFFF" points="266.243 165.606 269.393 165.606 279.594 179.352 279.594 165.606 282.447 165.606 282.447 184.639 279.716 184.639 269.096 170.396 269.096 184.639 266.243 184.639"/>
      <polygon fill="#FFFFFF" points="286.056 165.606 299.739 165.606 299.739 168.796 289.032 168.796 289.032 173.225 298.247 173.225 298.247 176.41 289.032 176.41 289.032 181.445 299.987 181.445 299.987 184.639 286.056 184.639"/>
      <path fill="#FFFFFF" d="M301.0422 180.9459C301.6702 181.1369 302.2472 181.2829 302.7742 181.3909 303.3002 181.4929 303.8552 181.5459 304.4612 181.5459 306.0812 181.5459 307.1782 181.2089 307.7592 180.5269 308.3302 179.8489 308.6172 178.7369 308.6172 177.2049L308.6172 165.6059 311.5932 165.6059 311.5932 177.4149C311.5782 180.1379 311.0312 182.0529 309.9402 183.1699 308.8412 184.2879 307.1392 184.8479 304.8172 184.8479 304.1102 184.8479 303.3882 184.8099 302.6662 184.7319 301.9442 184.6489 301.3972 184.5509 301.0422 184.4289L301.0422 180.9459zM325.5347 181.5761L325.5347 181.5761C326.2467 181.3511 326.8897 180.9801 327.4857 180.4591 328.0707 179.9521 328.5397 179.2401 328.8947 178.3461 329.2417 177.4441 329.4177 176.3471 329.4177 175.0581 329.4177 172.8581 328.8607 171.1861 327.7297 170.0451 326.6167 168.8981 325.1437 168.3311 323.3107 168.3311 321.4757 168.3311 320.0027 168.8981 318.8817 170.0451 317.7587 171.1861 317.2017 172.8581 317.2017 175.0581 317.2017 176.3471 317.3737 177.4391 317.7247 178.3261 318.0757 179.2201 318.5387 179.9271 319.1337 180.4491 319.7197 180.9761 320.3737 181.3511 321.0857 181.5761 321.7967 181.8001 322.5447 181.9121 323.3107 181.9121 324.0747 181.9121 324.8227 181.8001 325.5347 181.5761M314.7147 171.4191C315.0417 170.2141 315.5737 169.1371 316.2857 168.1801 317.0127 167.2301 317.9537 166.4881 319.1337 165.9471 320.3097 165.4001 321.7047 165.1371 323.3107 165.1371 324.9187 165.1371 326.3097 165.4001 327.4857 165.9471 328.6657 166.4881 329.6027 167.2301 330.3287 168.1801 331.0457 169.1371 331.5737 170.2141 331.9047 171.4191 332.2317 172.6201 332.3977 173.9031 332.3977 175.2681 332.3977 176.3651 332.2507 177.4781 331.9527 178.6001 331.6617 179.7311 331.1727 180.7861 330.4907 181.7701 329.7987 182.7511 328.8607 183.5611 327.6617 184.1801 326.4667 184.8041 325.0167 185.1071 323.3107 185.1071 321.6027 185.1071 320.1487 184.8041 318.9537 184.1801 317.7537 183.5611 316.8227 182.7511 316.1287 181.7701 315.4457 180.7861 314.9537 179.7311 314.6607 178.6001 314.3687 177.4781 314.2217 176.3651 314.2217 175.2681 314.2217 173.9031 314.3867 172.6201 314.7147 171.4191M356.538 181.4443L356.538 181.4443C359.217 181.4443 361.144 180.9413 362.305 179.9423 363.465 178.9323 364.047 177.3073 364.047 175.0583 364.047 172.7513 363.47 171.1263 362.319 170.2003 361.164 169.2693 359.231 168.7953 356.538 168.7953L353.32 168.7953 353.32 181.4443 356.538 181.4443zM350.148 165.6053L357.968 165.6053C359.315 165.6053 360.539 165.7813 361.641 166.1273 362.762 166.4733 363.729 167.0243 364.568 167.7613 365.402 168.5023 366.05 169.4783 366.519 170.6933 366.987 171.9123 367.221 173.3463 367.221 175.0003 367.221 176.5903 366.997 177.9903 366.559 179.2053 366.124 180.4153 365.499 181.4303 364.685 182.2293 363.875 183.0283 362.91 183.6353 361.802 184.0343 360.695 184.4333 359.456 184.6383 358.11 184.6383L350.148 184.6383 350.148 165.6053z"/>
      <polygon fill="#FFFFFF" points="370.016 165.606 384.592 165.606 384.592 168.796 373.192 168.796 373.192 173.225 383.007 173.225 383.007 176.41 373.192 176.41 373.192 181.445 384.861 181.445 384.861 184.639 370.016 184.639"/>
      <polygon fill="#FFFFFF" points="395.48 165.606 410.05 165.606 410.05 168.796 398.65 168.796 398.65 173.225 408.46 173.225 408.46 176.41 398.65 176.41 398.65 181.445 410.323 181.445 410.323 184.639 395.48 184.639"/>
      <polygon fill="#FFFFFF" points="412.871 165.606 416.227 165.606 427.086 179.352 427.086 165.606 430.124 165.606 430.124 184.639 427.221 184.639 415.904 170.396 415.904 184.639 412.871 184.639"/>
      <polygon fill="#FFFFFF" points="432.426 165.606 435.826 165.606 441.928 180.791 448.138 165.606 451.538 165.606 443.582 184.639 440.275 184.639"/>
      <path fill="#FFFFFF" d="M463.2692 177.0676L463.2692 177.0676 459.8742 168.5866 456.4792 177.0676 463.2692 177.0676zM458.0642 165.6056L461.6892 165.6056 469.5772 184.6386 466.2262 184.6386 464.5282 180.2636 455.1632 180.2636 453.4402 184.6386 450.0602 184.6386 458.0642 165.6056zM484.3326 171.3898C484.1966 170.9168 483.9956 170.4978 483.7376 170.1308 483.4746 169.7718 483.1376 169.4348 482.7126 169.1558 482.2896 168.8638 481.7276 168.6348 481.0546 168.4688 480.3766 168.3028 479.5666 168.2198 478.6346 168.2198 478.0606 168.2198 477.5276 168.2638 477.0206 168.3568 476.5136 168.4388 476.0546 168.5868 475.6446 168.7758 475.2346 168.9658 474.9076 169.2108 474.6746 169.5168 474.4356 169.8238 474.3176 170.1848 474.3176 170.6058 474.3176 170.8348 474.3576 171.0488 474.4396 171.2498 474.5186 171.4488 474.6846 171.6388 474.9416 171.8188 475.1966 172.0048 475.5666 172.1698 476.0596 172.3318 476.5526 172.4868 477.1866 172.6288 477.9566 172.7518L481.8056 173.4288C483.6986 173.7618 485.1366 174.3708 486.1086 175.2678 487.1036 176.1558 487.5916 177.3748 487.5916 178.9328 487.5916 180.0098 487.3866 180.9518 486.9766 181.7458 486.5666 182.5318 486.0006 183.1858 485.2646 183.6828 484.5426 184.1758 483.6936 184.5368 482.7286 184.7658 481.7716 184.9998 480.7236 185.1078 479.5866 185.1078 477.9626 185.1078 476.5866 184.9078 475.4346 184.5068 474.2836 184.1018 473.3816 183.6098 472.7096 183.0148 472.0356 182.4238 471.5326 181.8338 471.2206 181.2488 470.8996 180.6588 470.6746 180.1258 470.5376 179.6348L473.6016 178.5118C473.7806 178.9328 473.9966 179.3318 474.2456 179.7028 474.4986 180.0778 474.8546 180.4288 475.3086 180.7758 475.7676 181.1128 476.3526 181.3948 477.0746 181.5998 477.8006 181.8098 478.6686 181.9118 479.6846 181.9118 481.0206 181.9118 482.1476 181.6778 483.0536 181.1948 483.9676 180.7128 484.4206 180.0738 484.4206 179.2678 484.4206 178.0288 483.2406 177.2388 480.8896 176.8878L477.0006 176.2588C475.1176 175.9658 473.6696 175.3458 472.6596 174.4098 471.6456 173.4788 471.1436 172.2878 471.1436 170.8388 471.1436 169.5128 471.4446 168.4488 472.0546 167.6448 472.6656 166.8428 473.4016 166.2628 474.2796 165.9168 475.1576 165.5718 475.9536 165.3508 476.6836 165.2588 477.4196 165.1758 478.0936 165.1318 478.7186 165.1318 480.3426 165.1318 481.7086 165.3228 482.8106 165.6978 483.9136 166.0688 484.7716 166.5318 485.3816 167.0828 485.9906 167.6348 486.4256 168.1658 486.6886 168.6638 486.9476 169.1758 487.1616 169.6978 487.3226 170.2388L484.3326 171.3898z"/>
      <polygon fill="#FFFFFF" points="490.298 165.606 504.873 165.606 504.873 168.796 493.474 168.796 493.474 173.225 503.285 173.225 503.285 176.41 493.474 176.41 493.474 181.445 505.142 181.445 505.142 184.639 490.298 184.639"/>
      <path fill="#FFFFFF" d="M520.3426,171.3898 C520.2046,170.9168 520.0116,170.4978 519.7476,170.1308 C519.4886,169.7718 519.1476,169.4348 518.7186,169.1558 C518.2936,168.8638 517.7476,168.6348 517.0646,168.4688 C516.3866,168.3028 515.5826,168.2198 514.6406,168.2198 C514.0736,168.2198 513.5436,168.2638 513.0346,168.3568 C512.5276,168.4388 512.0696,168.5868 511.6606,168.7758 C511.2496,168.9658 510.9226,169.2108 510.6846,169.5168 C510.4456,169.8238 510.3276,170.1848 510.3276,170.6058 C510.3276,170.8348 510.3676,171.0488 510.4496,171.2498 C510.5326,171.4488 510.6986,171.6388 510.9516,171.8188 C511.2056,172.0048 511.5766,172.1698 512.0736,172.3318 C512.5616,172.4868 513.1916,172.6288 513.9726,172.7518 L517.8206,173.4288 C519.7086,173.7618 521.1466,174.3708 522.1276,175.2678 C523.1176,176.1558 523.6006,177.3748 523.6006,178.9328 C523.6006,180.0098 523.3956,180.9518 522.9856,181.7458 C522.5766,182.5318 522.0166,183.1858 521.2736,183.6828 C520.5516,184.1758 519.7036,184.5368 518.7426,184.7658 C517.7866,184.9998 516.7376,185.1078 515.6006,185.1078 C513.9766,185.1078 512.5916,184.9078 511.4496,184.5068 C510.2976,184.1018 509.3916,183.6098 508.7176,183.0148 C508.0496,182.4238 507.5526,181.8338 507.2356,181.2488 C506.9076,180.6588 506.6846,180.1258 506.5516,179.6348 L509.6116,178.5118 C509.7966,178.9328 510.0106,179.3318 510.2556,179.7028 C510.5136,180.0778 510.8686,180.4288 511.3186,180.7758 C511.7756,181.1128 512.3626,181.3948 513.0886,181.5998 C513.8106,181.8098 514.6786,181.9118 515.6986,181.9118 C517.0306,181.9118 518.1576,181.6778 519.0696,181.1948 C519.9756,180.7128 520.4306,180.0738 520.4306,179.2678 C520.4306,178.0288 519.2546,177.2388 516.8986,176.8878 L513.0046,176.2588 C511.1316,175.9658 509.6836,175.3458 508.6736,174.4098 C507.6606,173.4788 507.1576,172.2878 507.1576,170.8388 C507.1576,169.5128 507.4586,168.4488 508.0696,167.6448 C508.6796,166.8428 509.4156,166.2628 510.2936,165.9168 C511.1676,165.5718 511.9616,165.3508 512.6976,165.2588 C513.4256,165.1758 514.1086,165.1318 514.7326,165.1318 C516.3526,165.1318 517.7176,165.3228 518.8256,165.6978 C519.9236,166.0688 520.7866,166.5318 521.3956,167.0828 C522.0066,167.6348 522.4396,168.1658 522.7026,168.6638 C522.9566,169.1758 523.1716,169.6978 523.3376,170.2388 L520.3426,171.3898 Z"/>
      <polygon fill="#FFFFFF" points="532.01 165.606 535.405 165.606 541.514 180.791 547.728 165.606 551.118 165.606 543.166 184.639 539.854 184.639"/>
      <path fill="#FFFFFF" d="M562.8586 177.0676L562.8586 177.0676 559.4586 168.5866 556.0636 177.0676 562.8586 177.0676zM557.6446 165.6056L561.2686 165.6056 569.1606 184.6386 565.8056 184.6386 564.1136 180.2636 554.7426 180.2636 553.0246 184.6386 549.6396 184.6386 557.6446 165.6056zM588.3366 177.8593C588.2346 178.5713 588.0496 179.3223 587.7706 180.0973 587.4926 180.8733 587.0336 181.6483 586.3856 182.4103 585.7316 183.1763 584.8256 183.8203 583.6486 184.3373 582.4636 184.8543 581.0046 185.1073 579.2636 185.1073 577.9666 185.1073 576.7556 184.8973 575.6386 184.4633 574.5266 184.0383 573.5516 183.3903 572.7136 182.5323 571.8786 181.6683 571.2296 180.5903 570.7666 179.2983 570.3116 178.0053 570.0836 176.5073 570.0836 174.8193 570.0836 173.4103 570.2676 172.1123 570.6546 170.9323 571.0436 169.7563 571.6246 168.7363 572.4046 167.8683 573.1766 167.0103 574.1616 166.3323 575.3516 165.8533 576.5416 165.3763 577.9326 165.1313 579.5126 165.1313 581.1466 165.1313 582.5276 165.3903 583.6346 165.8873 584.7416 166.4063 585.5996 167.0143 586.2046 167.7373 586.8106 168.4633 587.2396 169.1413 587.4886 169.7803 587.7416 170.4203 587.9376 171.0153 588.0736 171.5713L588.0936 171.6833 584.9176 171.6833C584.8586 171.4493 584.7276 171.1563 584.5166 170.7993 584.3026 170.4443 583.9996 170.0733 583.5906 169.6883 583.1816 169.3073 582.6436 168.9813 581.9866 168.7223 581.3326 168.4593 580.5656 168.3273 579.6886 168.3273 578.5806 168.3273 577.6336 168.4973 576.8296 168.8393 576.0196 169.1753 575.3566 169.6583 574.8386 170.2783 574.3176 170.8983 573.9266 171.6253 573.6886 172.4593 573.4436 173.3033 573.3126 174.2243 573.3126 175.2393 573.3126 177.3513 573.8986 178.9853 575.0486 180.1613 576.2106 181.3273 577.6926 181.9113 579.5126 181.9113 580.3906 181.9113 581.1706 181.7813 581.8536 181.5023 582.5476 181.2443 583.1116 180.8923 583.5706 180.4733 584.0196 180.0543 584.3806 179.6153 584.6396 179.1463 584.9076 178.6933 585.0726 178.2583 585.1666 177.8593L588.3366 177.8593zM591.3371 165.6057L591.3371 165.6057 594.5111 165.6057 594.5111 184.6447 591.3371 184.6447 591.3371 165.6057zM593.3901 160.4727L596.5221 160.4727 592.9471 164.2157 590.9801 164.2157 593.3901 160.4727zM609.5517 181.5761L609.5517 181.5761C610.3117 181.3511 611.0047 180.9801 611.6287 180.4591 612.2527 179.9521 612.7557 179.2401 613.1327 178.3461 613.4977 177.4441 613.6877 176.3471 613.6877 175.0581 613.6877 172.8581 613.0887 171.1861 611.9017 170.0451 610.7127 168.8981 609.1367 168.3311 607.1817 168.3311 605.2287 168.3311 603.6587 168.8981 602.4687 170.0451 601.2727 171.1861 600.6777 172.8581 600.6777 175.0581 600.6777 176.3471 600.8637 177.4391 601.2347 178.3261 601.6097 179.2201 602.1067 179.9271 602.7307 180.4491 603.3607 180.9761 604.0537 181.3511 604.8157 181.5761 605.5757 181.8001 606.3617 181.9121 607.1817 181.9121 607.9997 181.9121 608.7957 181.8001 609.5517 181.5761M598.0287 171.4191C598.3797 170.2141 598.9367 169.1371 599.7077 168.1801 600.4737 167.2301 601.4777 166.4881 602.7307 165.9471 603.9857 165.4001 605.4677 165.1371 607.1817 165.1371 608.8977 165.1371 610.3817 165.4001 611.6287 165.9471 612.8777 166.4881 613.8927 167.2301 614.6587 168.1801 615.4247 169.1371 615.9897 170.2141 616.3367 171.4191 616.6837 172.6201 616.8587 173.9031 616.8587 175.2681 616.8587 176.3651 616.7017 177.4781 616.3947 178.6001 616.0777 179.7311 615.5607 180.7861 614.8287 181.7701 614.0987 182.7511 613.0927 183.5611 611.8197 184.1801 610.5467 184.8041 608.9997 185.1071 607.1817 185.1071 605.3607 185.1071 603.8247 184.8041 602.5467 184.1801 601.2687 183.5611 600.2687 182.7511 599.5367 181.7701 598.8047 180.7861 598.2877 179.7311 597.9767 178.6001 597.6587 177.4781 597.5077 176.3651 597.5077 175.2681 597.5077 173.9031 597.6777 172.6201 598.0287 171.4191M632.3128 171.3898C632.1708 170.9168 631.9758 170.4978 631.7128 170.1308 631.4538 169.7718 631.1118 169.4348 630.6868 169.1558 630.2638 168.8638 629.7078 168.6348 629.0348 168.4688 628.3508 168.3028 627.5468 168.2198 626.6088 168.2198 626.0388 168.2198 625.5078 168.2638 624.9998 168.3568 624.4928 168.4388 624.0338 168.5868 623.6248 168.7758 623.2098 168.9658 622.8928 169.2108 622.6448 169.5168 622.4098 169.8238 622.2978 170.1848 622.2978 170.6058 622.2978 170.8348 622.3358 171.0488 622.4148 171.2498 622.5018 171.4488 622.6628 171.6388 622.9218 171.8188 623.1758 172.0048 623.5468 172.1698 624.0398 172.3318 624.5318 172.4868 625.1608 172.6288 625.9408 172.7518L629.7848 173.4288C631.6788 173.7618 633.1168 174.3708 634.0968 175.2678 635.0818 176.1558 635.5708 177.3748 635.5708 178.9328 635.5708 180.0098 635.3658 180.9518 634.9598 181.7458 634.5468 182.5318 633.9808 183.1858 633.2438 183.6828 632.5168 184.1758 631.6688 184.5368 630.7068 184.7658 629.7518 184.9998 628.7018 185.1078 627.5708 185.1078 625.9508 185.1078 624.5608 184.9078 623.4148 184.5068 622.2678 184.1018 621.3558 183.6098 620.6838 183.0148 620.0148 182.4238 619.5128 181.8338 619.1958 181.2488 618.8778 180.6588 618.6528 180.1258 618.5178 179.6348L621.5758 178.5118C621.7558 178.9328 621.9708 179.3318 622.2238 179.7028 622.4838 180.0778 622.8288 180.4288 623.2878 180.7758 623.7458 181.1128 624.3328 181.3948 625.0528 181.5998 625.7748 181.8098 626.6428 181.9118 627.6588 181.9118 628.9998 181.9118 630.1268 181.6778 631.0338 181.1948 631.9418 180.7128 632.3948 180.0738 632.3948 179.2678 632.3948 178.0288 631.2238 177.2388 628.8688 176.8878L624.9748 176.2588C623.1018 175.9658 621.6538 175.3458 620.6438 174.4098 619.6248 173.4788 619.1218 172.2878 619.1218 170.8388 619.1218 169.5128 619.4248 168.4488 620.0398 167.6448 620.6478 166.8428 621.3808 166.2628 622.2638 165.9168 623.1358 165.5718 623.9318 165.3508 624.6638 165.2588 625.3948 165.1758 626.0728 165.1318 626.6968 165.1318 628.3168 165.1318 629.6878 165.3228 630.7908 165.6978 631.8878 166.0688 632.7458 166.5318 633.3558 167.0828 633.9708 167.6348 634.4048 168.1658 634.6688 168.6638 634.9268 169.1758 635.1418 169.6978 635.3018 170.2388L632.3128 171.3898zM183.5697 38.6592L177.5067.6702 171.5657 38.8352C175.5557 38.4892 179.5797 38.4352 183.5697 38.6592M222.7978 11.9038L204.0958 42.5238C207.6568 43.7138 211.1008 45.1668 214.4028 46.8948L222.7978 11.9038zM131.7849 11.9138L140.4139 47.8598C143.7689 46.0648 147.2869 44.5328 150.9249 43.2498L131.7849 11.9138zM96.4828 36.5567L117.8578 67.8787C120.0278 64.6257 122.5218 61.6257 125.2968 58.8887L96.4828 36.5567zM236.9939 67.1675L257.8759 36.5565 229.8459 58.2845C232.4719 60.9615 234.8769 63.9185 236.9939 67.1675"/>
      <path stroke="#FFFFFF" stroke-width="1.019" d="M11.7609,212.6968 L507.4749,212.6968"/>
      <path fill="#FFFFFF" d="M535.1573 211.8827C534.8003 214.4197 533.8303 216.3997 532.2353 217.8497 530.6493 219.2777 528.6443 219.9997 526.2153 219.9997 523.3813 219.9997 521.1273 219.0247 519.4393 217.0737 517.7613 215.1117 516.9233 212.4927 516.9233 209.1857 516.9233 205.8777 517.7953 203.2437 519.5423 201.2827 521.2843 199.3277 523.6303 198.3467 526.5713 198.3467 528.8933 198.3467 530.7963 198.9407 532.2833 200.1257 533.7813 201.3227 534.6733 202.9667 534.9763 205.0637L532.2833 205.0637C532.0253 203.7027 531.3963 202.6537 530.3953 201.9117 529.3963 201.1707 528.1093 200.8047 526.5273 200.8047 524.4743 200.8047 522.8343 201.5657 521.6153 203.0727 520.3903 204.5847 519.7823 206.6237 519.7823 209.1857 519.7823 211.9067 520.3523 213.9807 521.4783 215.4037 522.6153 216.8297 524.2543 217.5417 526.4103 217.5417 528.0013 217.5417 529.3223 217.0477 530.3713 216.0677 531.4253 215.0867 532.1273 213.6877 532.4683 211.8827L535.1573 211.8827zM547.435 216.1318L547.435 216.1318C548.215 215.0968 548.606 213.7018 548.606 211.9458 548.606 210.1988 548.215 208.8048 547.435 207.7648 546.649 206.7308 545.596 206.2088 544.279 206.2088 542.952 206.2088 541.903 206.7308 541.123 207.7648 540.347 208.8048 539.961 210.1988 539.961 211.9458 539.961 213.7018 540.347 215.0968 541.123 216.1318 541.903 217.1648 542.952 217.6818 544.279 217.6818 545.596 217.6818 546.649 217.1648 547.435 216.1318M539.254 217.6678C537.971 216.2098 537.332 214.3068 537.332 211.9458 537.332 209.5898 537.971 207.6768 539.254 206.2248 540.532 204.7658 542.21 204.0478 544.279 204.0478 546.367 204.0478 548.045 204.7658 549.322 206.2248 550.601 207.6768 551.235 209.5898 551.235 211.9458 551.235 214.3068 550.601 216.2098 549.322 217.6678 548.045 219.1268 546.367 219.8448 544.279 219.8448 542.21 219.8448 540.532 219.1268 539.254 217.6678"/>
      <polygon fill="#FFFFFF" points="554.156 198.903 555.415 198.903 556.669 198.903 556.669 219.444 555.415 219.444 554.156 219.444"/>
      <path fill="#FFFFFF" d="M569.7074 216.1318L569.7074 216.1318C570.4884 215.0968 570.8784 213.7018 570.8784 211.9458 570.8784 210.1988 570.4884 208.8048 569.7074 207.7648 568.9274 206.7308 567.8684 206.2088 566.5474 206.2088 565.2244 206.2088 564.1764 206.7308 563.3954 207.7648 562.6254 208.8048 562.2344 210.1988 562.2344 211.9458 562.2344 213.7018 562.6254 215.0968 563.3954 216.1318 564.1764 217.1648 565.2244 217.6818 566.5474 217.6818 567.8684 217.6818 568.9274 217.1648 569.7074 216.1318M561.5274 217.6678C560.2444 216.2098 559.6044 214.3068 559.6044 211.9458 559.6044 209.5898 560.2444 207.6768 561.5274 206.2248 562.8104 204.7658 564.4844 204.0478 566.5474 204.0478 568.6344 204.0478 570.3174 204.7658 571.5904 206.2248 572.8694 207.6768 573.5034 209.5898 573.5034 211.9458 573.5034 214.3068 572.8694 216.2098 571.5904 217.6678 570.3174 219.1268 568.6344 219.8448 566.5474 219.8448 564.4844 219.8448 562.8104 219.1268 561.5274 217.6678M576.3708 204.4928L577.5558 204.4928 578.7608 204.4928 578.7608 206.7118 579.2738 206.0488C580.4048 204.7118 581.7508 204.0478 583.3118 204.0478 584.6598 204.0478 585.7268 204.4428 586.5178 205.2348 586.8678 205.5858 587.1418 205.9908 587.3368 206.4478L587.7418 205.9318C588.8248 204.6728 590.1168 204.0478 591.6148 204.0478 593.1808 204.0478 594.3898 204.4728 595.2438 205.3228 596.0928 206.1748 596.5178 207.3798 596.5178 208.9518L596.5178 219.4378 595.2638 219.4378 594.0048 219.4378 594.0048 209.8038C594.0048 208.6628 593.7758 207.8008 593.3028 207.2138 592.8398 206.6298 592.1608 206.3368 591.2588 206.3368 590.1758 206.3368 589.3118 206.7608 588.6678 207.6048 588.0298 208.4528 587.7028 209.5998 587.7028 211.0488L587.7028 219.4378 586.4438 219.4378 585.1908 219.4378 585.1908 209.1948C585.1908 208.2738 584.9748 207.5558 584.5468 207.0688 584.1268 206.5798 583.5068 206.3368 582.6988 206.3368 581.5818 206.3368 580.6678 206.8088 579.9578 207.7608 579.2398 208.7128 578.8878 209.9368 578.8878 211.4338L578.8878 219.4378 577.6298 219.4378 576.3708 219.4378 576.3708 204.4928zM606.5073 217.6637L606.5073 217.6637C607.8243 217.6637 608.8193 217.1697 609.5023 216.1757 610.1803 215.1857 610.5173 213.7417 610.5173 211.8427 610.5173 209.9657 610.1953 208.5847 609.5423 207.6827 608.8873 206.7857 607.8833 206.3367 606.5213 206.3367 605.1363 206.3367 604.1173 206.8447 603.4833 207.8587 602.8483 208.8727 602.5213 210.4817 602.5213 212.6787 602.5213 214.2727 602.8683 215.5027 603.5613 216.3707 604.2493 217.2337 605.2343 217.6637 606.5073 217.6637L606.5073 217.6637zM600.0093 198.9027L601.2683 198.9027 602.5213 198.9027 602.5213 206.4337C603.6283 204.8197 605.0493 204.0297 606.7863 204.0437 608.7463 204.0437 610.2923 204.7217 611.4343 206.0587 612.5763 207.4097 613.1463 209.2347 613.1463 211.5217 613.1463 214.1167 612.5703 216.1557 611.4193 217.6347 610.2733 219.1067 608.6783 219.8487 606.6393 219.8487 604.9473 219.8487 603.6103 219.1997 602.6153 217.9017L602.3763 217.6007 602.3763 219.4377 600.0093 219.4377 600.0093 198.9027zM616.2094 204.4928L616.2094 204.4928 617.4684 204.4928 618.7224 204.4928 618.7224 219.4378 617.4684 219.4378 616.2094 219.4378 616.2094 204.4928zM616.1814 201.7508L618.7514 201.7508 618.7514 198.8968 616.1814 198.8968 616.1814 201.7508zM631.6344 213.5166L631.6344 213.5166 631.6344 211.8976C631.1704 212.1216 630.6484 212.2736 630.0784 212.3556L627.7754 212.6926C626.5654 212.8576 625.6774 213.1416 625.1174 213.5366 624.5604 213.9316 624.2834 214.4726 624.2834 215.1506 624.2834 215.9846 624.5124 216.6346 624.9654 217.0876 625.4204 217.5416 626.0684 217.7656 626.9124 217.7656 628.2334 217.7656 629.3464 217.4086 630.2634 216.6926 630.8824 216.1856 631.2974 215.6146 631.5024 214.9806 631.5404 214.8726 631.5704 214.6776 631.5904 214.4096 631.6184 214.1406 631.6344 213.8496 631.6344 213.5166M626.4194 219.8446C624.9574 219.8446 623.8004 219.4536 622.9404 218.6736 622.0824 217.8936 621.6594 216.8296 621.6594 215.5026 621.6594 214.1606 622.0584 213.0916 622.8624 212.3016 623.6684 211.5116 624.8434 211.0186 626.3894 210.8236L629.8144 210.3906C630.0924 210.3566 630.3614 210.3126 630.6154 210.2486 630.9364 210.1656 631.1904 209.9996 631.3714 209.7416 631.5404 209.4926 631.6344 209.1796 631.6344 208.7946L631.6344 208.6686C631.6344 207.8686 631.3274 207.2436 630.7214 206.7896 630.1164 206.3426 629.2724 206.1126 628.1954 206.1126 627.1614 206.1126 626.3554 206.3506 625.7654 206.8336 625.1844 207.3116 624.8334 208.0246 624.7124 208.9796L622.3894 208.9796C622.5174 207.3356 623.0924 206.1066 624.1274 205.2826 625.1604 204.4526 626.6384 204.0486 628.5704 204.0486 630.3894 204.0486 631.7704 204.4336 632.7214 205.2236 633.6734 206.0146 634.1464 207.1606 634.1464 208.6686L634.1464 216.8876C634.1464 217.1356 634.2184 217.3406 634.3754 217.4926 634.5314 217.6486 634.7364 217.7216 635.0004 217.7216 635.0724 217.7216 635.1804 217.7116 635.3274 217.6976 635.4734 217.6726 635.6244 217.6486 635.7944 217.6106L635.7944 219.4296C635.5504 219.5276 635.2974 219.5956 635.0244 219.6486 634.7564 219.7066 634.5274 219.7366 634.3414 219.7366 633.3864 219.7366 632.7024 219.4736 632.2784 218.9506 631.9954 218.6096 631.7944 218.1226 631.6684 217.4866 631.4824 217.7156 631.2734 217.9416 631.0344 218.1566 629.7704 219.2826 628.2394 219.8446 626.4194 219.8446"/>
    </g>
    <path fill="#FFFFFF" d="M173.867,92.511 C150.655,93.958 123.942,107.558 116.306,132.915 L116.306,132.915 C158.179,124.883 198.387,126.023 237.452,133.443 L237.452,133.443 C232.482,107.092 202.501,92.395 177.638,92.395 L177.638,92.395 C176.367,92.395 175.108,92.434 173.867,92.511"/>
    <g fill="#FFFFFF" transform="translate(149 .402)">
      <path d="M35.2529 30.4678L41.3889 31.9658C40.1029 36.8378 37.7889 40.5518 34.4459 43.1098 31.1039 45.6678 27.0179 46.9468 22.1899 46.9468 17.1919 46.9468 13.1279 45.9638 9.9959 43.9958 6.8649 42.0298 4.4819 39.1808 2.8479 35.4508 1.2129 31.7208.3959 27.7168.3959 23.4358.3959 18.7688 1.3179 14.6978 3.1639 11.2218 5.0089 7.7478 7.6339 5.1078 11.0399 3.3038 14.4449 1.4998 18.1929.5978 22.2849.5978 26.9229.5978 30.8249 1.7398 33.9879 4.0228 37.1509 6.3048 39.3539 9.5158 40.5989 13.6528L34.5569 15.0288C33.4819 11.7678 31.9209 9.3928 29.8759 7.9058 27.8299 6.4178 25.2579 5.6738 22.1579 5.6738 18.5939 5.6738 15.6149 6.4988 13.2219 8.1498 10.8289 9.8008 9.1469 12.0168 8.1769 14.7998 7.2069 17.5818 6.7219 20.4508 6.7219 23.4058 6.7219 27.2178 7.2959 30.5448 8.4459 33.3878 9.5949 36.2308 11.3819 38.3558 13.8079 39.7618 16.2319 41.1688 18.8569 41.8718 21.6839 41.8718 25.1209 41.8718 28.0299 40.9138 30.4139 38.9978 32.7959 37.0818 34.4089 34.2388 35.2529 30.4678M51.9535 29.9483C51.9535 34.1063 52.8915 37.2193 54.7685 39.2883 56.6455 41.3573 59.0075 42.3913 61.8535 42.3913 64.6795 42.3913 67.0305 41.3513 68.9075 39.2733 70.7845 37.1943 71.7225 34.0253 71.7225 29.7643 71.7225 25.7493 70.7785 22.7073 68.8915 20.6383 67.0045 18.5703 64.6585 17.5353 61.8535 17.5353 59.0075 17.5353 56.6455 18.5653 54.7685 20.6233 52.8915 22.6823 51.9535 25.7903 51.9535 29.9483M46.1015 29.9483C46.1015 23.9353 47.8305 19.4823 51.2895 16.5883 54.1785 14.1833 57.6995 12.9803 61.8535 12.9803 66.4725 12.9803 70.2465 14.4433 73.1775 17.3673 76.1085 20.2923 77.5745 24.3333 77.5745 29.4893 77.5745 33.6683 76.9255 36.9543 75.6285 39.3493 74.3315 41.7443 72.4445 43.6043 69.9675 44.9283 67.4895 46.2533 64.7845 46.9163 61.8535 46.9163 57.1515 46.9163 53.3505 45.4593 50.4515 42.5443 47.5515 39.6293 46.1015 35.4313 46.1015 29.9483M84.1855 46.1822L84.1855 13.7142 89.3095 13.7142 89.3095 18.6362C90.6165 16.3332 91.8245 14.8142 92.9315 14.0812 94.0385 13.3472 95.2555 12.9802 96.5845 12.9802 98.5025 12.9802 100.4535 13.5722 102.4355 14.7532L100.4755 19.8592C99.0835 19.0642 97.6915 18.6662 96.2995 18.6662 95.0555 18.6662 93.9375 19.0292 92.9465 19.7522 91.9555 20.4752 91.2495 21.4792 90.8275 22.7642 90.1955 24.7202 89.8785 26.8602 89.8785 29.1832L89.8785 46.1822 84.1855 46.1822zM110.976 30.1314C110.976 34.3104 111.851 37.3984 113.601 39.3954 115.351 41.3924 117.471 42.3914 119.959 42.3914 122.49 42.3914 124.656 41.3574 126.459 39.2884 128.262 37.2194 129.163 34.0144 129.163 29.6734 129.163 25.5354 128.283 22.4374 126.522 20.3794 124.762 18.3204 122.658 17.2914 120.212 17.2914 117.787 17.2914 115.642 18.3864 113.775 20.5774 111.909 22.7684 110.976 25.9534 110.976 30.1314L110.976 30.1314zM105.82 58.6254L105.82 13.7144 111.008 13.7144 111.008 17.9334C112.23 16.2824 113.612 15.0444 115.151 14.2184 116.69 13.3934 118.557 12.9804 120.75 12.9804 123.618 12.9804 126.148 13.6944 128.341 15.1204 130.534 16.5474 132.189 18.5594 133.307 21.1584 134.425 23.7574 134.984 26.6054 134.984 29.7034 134.984 33.0264 134.367 36.0164 133.133 38.6764 131.9 41.3364 130.107 43.3744 127.756 44.7914 125.405 46.2074 122.933 46.9164 120.339 46.9164 118.441 46.9164 116.738 46.5284 115.23 45.7544 113.723 44.9804 112.483 44.0014 111.514 42.8194L111.514 58.6254 105.82 58.6254zM145.58 29.9483C145.58 34.1063 146.518 37.2193 148.395 39.2883 150.272 41.3573 152.634 42.3913 155.48 42.3913 158.306 42.3913 160.657 41.3513 162.534 39.2733 164.411 37.1943 165.349 34.0253 165.349 29.7643 165.349 25.7493 164.405 22.7073 162.518 20.6383 160.631 18.5703 158.285 17.5353 155.48 17.5353 152.634 17.5353 150.272 18.5653 148.395 20.6233 146.518 22.6823 145.58 25.7903 145.58 29.9483M139.728 29.9483C139.728 23.9353 141.457 19.4823 144.916 16.5883 147.805 14.1833 151.326 12.9803 155.48 12.9803 160.099 12.9803 163.873 14.4433 166.804 17.3673 169.735 20.2923 171.201 24.3333 171.201 29.4893 171.201 33.6683 170.552 36.9543 169.255 39.3493 167.958 41.7443 166.071 43.6043 163.594 44.9283 161.116 46.2533 158.411 46.9163 155.48 46.9163 150.778 46.9163 146.977 45.4593 144.078 42.5443 141.178 39.6293 139.728 35.4313 139.728 29.9483M177.8114 46.1822L177.8114 13.7142 182.9354 13.7142 182.9354 18.6362C184.2424 16.3332 185.4504 14.8142 186.5574 14.0812 187.6644 13.3472 188.8814 12.9802 190.2104 12.9802 192.1284 12.9802 194.0794 13.5722 196.0614 14.7532L194.1014 19.8592C192.7084 19.0642 191.3174 18.6662 189.9254 18.6662 188.6814 18.6662 187.5634 19.0292 186.5724 19.7522 185.5814 20.4752 184.8754 21.4792 184.4534 22.7642 183.8214 24.7202 183.5044 26.8602 183.5044 29.1832L183.5044 46.1822 177.8114 46.1822zM220.892 29.8867C218.825 30.7017 215.725 31.3957 211.592 31.9657 209.251 32.2917 207.596 32.6587 206.626 33.0667 205.657 33.4747 204.908 34.0707 204.38 34.8547 203.853 35.6397 203.59 36.5117 203.59 37.4687 203.59 38.9367 204.164 40.1587 205.314 41.1377 206.463 42.1157 208.145 42.6047 210.359 42.6047 212.552 42.6047 214.502 42.1417 216.21 41.2137 217.918 40.2867 219.173 39.0177 219.974 37.4077 220.585 36.1647 220.892 34.3307 220.892 31.9047L220.892 29.8867zM221.367 42.1777C219.257 43.9097 217.228 45.1327 215.278 45.8457 213.327 46.5587 211.234 46.9157 208.998 46.9157 205.308 46.9157 202.472 46.0447 200.49 44.3017 198.508 42.5587 197.517 40.3327 197.517 37.6217 197.517 36.0327 197.891 34.5797 198.64 33.2647 199.388 31.9507 200.369 30.8957 201.581 30.1007 202.793 29.3057 204.16 28.7047 205.677 28.2977 206.795 28.0117 208.482 27.7367 210.739 27.4717 215.335 26.9417 218.719 26.3097 220.892 25.5757 220.913 24.8227 220.923 24.3437 220.923 24.1387 220.923 21.8977 220.386 20.3177 219.31 19.4007 217.855 18.1577 215.694 17.5357 212.826 17.5357 210.148 17.5357 208.171 17.9897 206.895 18.8957 205.62 19.8037 204.676 21.4077 204.064 23.7117L198.497 22.9777C199.003 20.6747 199.836 18.8147 200.996 17.3977 202.156 15.9817 203.832 14.8907 206.026 14.1267 208.218 13.3627 210.759 12.9797 213.649 12.9797 216.516 12.9797 218.846 13.3067 220.639 13.9587 222.431 14.6107 223.748 15.4307 224.592 16.4197 225.436 17.4087 226.026 18.6567 226.364 20.1647 226.553 21.1027 226.649 22.7937 226.649 25.2397L226.649 32.5767C226.649 37.6937 226.77 40.9287 227.012 42.2837 227.254 43.6397 227.735 44.9387 228.452 46.1817L222.505 46.1817C221.914 45.0407 221.535 43.7057 221.367 42.1777L221.367 42.1777zM257.394 34.2896L262.993 34.9926C262.38 38.7226 260.815 41.6426 258.295 43.7516 255.775 45.8616 252.681 46.9156 249.011 46.9156 244.415 46.9156 240.719 45.4636 237.925 42.5596 235.13 39.6546 233.734 35.4926 233.734 30.0706 233.734 26.5646 234.335 23.4976 235.537 20.8686 236.739 18.2386 238.568 16.2666 241.025 14.9526 243.481 13.6376 246.154 12.9796 249.043 12.9796 252.691 12.9796 255.674 13.8726 257.995 15.6556 260.314 17.4386 261.8 19.9716 262.455 23.2526L256.919 24.0786C256.392 21.8976 255.458 20.2566 254.12 19.1556 252.781 18.0556 251.163 17.5046 249.264 17.5046 246.397 17.5046 244.066 18.4986 242.274 20.4856 240.482 22.4736 239.585 25.6176 239.585 29.9176 239.585 34.2796 240.45 37.4486 242.179 39.4256 243.908 41.4026 246.165 42.3916 248.949 42.3916 251.183 42.3916 253.049 41.7286 254.547 40.4036 256.043 39.0796 256.993 37.0406 257.394 34.2896M267.895 46.182L273.588 46.182 273.588 13.714 267.895 13.714 267.895 46.182zM267.895 7.691L273.588 7.691 273.588 1.363 267.895 1.363 267.895 7.691zM292.725 9.6783L296.931 1.1183 304.396 1.1183 297.438 9.6783 292.725 9.6783zM285.988 29.9483C285.988 34.1063 286.925 37.2203 288.802 39.2883 290.679 41.3573 293.04 42.3913 295.888 42.3913 298.713 42.3913 301.064 41.3513 302.941 39.2733 304.818 37.1943 305.756 34.0253 305.756 29.7643 305.756 25.7493 304.812 22.7073 302.925 20.6383 301.038 18.5703 298.692 17.5353 295.888 17.5353 293.04 17.5353 290.679 18.5653 288.802 20.6233 286.925 22.6823 285.988 25.7903 285.988 29.9483L285.988 29.9483zM280.135 29.9483C280.135 23.9353 281.865 19.4823 285.323 16.5883 288.211 14.1833 291.733 12.9803 295.888 12.9803 300.505 12.9803 304.28 14.4433 307.211 17.3673 310.142 20.2923 311.608 24.3333 311.608 29.4893 311.608 33.6683 310.959 36.9543 309.662 39.3493 308.366 41.7443 306.478 43.6043 304 44.9283 301.523 46.2533 298.819 46.9163 295.888 46.9163 291.185 46.9163 287.384 45.4593 284.485 42.5443 281.585 39.6293 280.135 35.4313 280.135 29.9483L280.135 29.9483zM318.2826 46.1822L318.2826 13.7142 323.4066 13.7142 323.4066 18.3302C325.8736 14.7642 329.4366 12.9802 334.0966 12.9802 336.1216 12.9802 337.9826 13.3322 339.6796 14.0352 341.3776 14.7382 342.6476 15.6612 343.4916 16.8022 344.3346 17.9432 344.9256 19.2992 345.2626 20.8682 345.4736 21.8872 345.5796 23.6702 345.5796 26.2182L345.5796 46.1822 339.8866 46.1822 339.8866 26.4322C339.8866 24.1902 339.6646 22.5142 339.2216 21.4032 338.7786 20.2922 337.9926 19.4062 336.8646 18.7432 335.7366 18.0812 334.4136 17.7492 332.8956 17.7492 330.4706 17.7492 328.3776 18.4942 326.6166 19.9812 324.8556 21.4692 323.9756 24.2922 323.9756 28.4502L323.9756 46.1822 318.2826 46.1822z"/>
    </g>
  </g>
</svg>
